<svg width="50" height="51" viewBox="0 0 50 51" fill="none" xmlns="http://www.w3.org/2000/svg">
<path d="M25 0.591003C11.2 0.591003 0 11.791 0 25.591C0 39.391 11.2 50.591 25 50.591C38.8 50.591 50 39.391 50 25.591C50 11.791 38.8 0.591003 25 0.591003ZM25 8.091C29.15 8.091 32.5 11.441 32.5 15.591C32.5 19.741 29.15 23.091 25 23.091C20.85 23.091 17.5 19.741 17.5 15.591C17.5 11.441 20.85 8.091 25 8.091ZM25 43.591C18.75 43.591 13.225 40.391 10 35.541C10.075 30.566 20 27.841 25 27.841C29.975 27.841 39.925 30.566 40 35.541C36.775 40.391 31.25 43.591 25 43.591Z" fill="#1F1F1F"/>
</svg>
