<svg width="19" height="16" viewBox="0 0 19 16" fill="none" xmlns="http://www.w3.org/2000/svg">
<path fill-rule="evenodd" clip-rule="evenodd" d="M10.2168 0.354057L13.9995 5.88409H18.1364C18.6114 5.88409 19 6.26344 19 6.72708L18.9741 6.95469L16.7805 14.7692C16.5732 15.4773 15.9082 16 15.1136 16H3.88636C3.09182 16 2.42682 15.4773 2.22818 14.7692L0.0345454 6.95469C0.00863633 6.87882 0 6.80295 0 6.72708C0 6.26344 0.388636 5.88409 0.863636 5.88409H5.00045L8.78318 0.362487C8.94727 0.118019 9.22364 0 9.5 0C9.77636 0 10.0527 0.118019 10.2168 0.354057ZM9.5 2.17492L6.90909 5.88409H12.0909L9.5 2.17492ZM11 8H9V10H7V12H9V14H11V12H13V10H11V8Z" fill="#1F1F1F"/>
</svg>
