<svg width="41" height="35" viewBox="0 0 41 35" fill="none" xmlns="http://www.w3.org/2000/svg">
<path d="M29.8661 12.5954L22.0186 0.842039C21.6782 0.340372 21.1048 0.0895386 20.5315 0.0895386C19.9582 0.0895386 19.3848 0.340372 19.0444 0.859955L11.1969 12.5954H2.61485C1.62943 12.5954 0.823181 13.4016 0.823181 14.387C0.823181 14.5483 0.841098 14.7095 0.894848 14.8708L5.44568 31.4795C5.85776 32.9845 7.23735 34.0954 8.88568 34.0954H32.1773C33.8257 34.0954 35.2053 32.9845 35.6353 31.4795L40.1861 14.8708L40.2398 14.387C40.2398 13.4016 39.4336 12.5954 38.4482 12.5954H29.8661ZM15.1565 12.5954L20.5315 4.71204L25.9065 12.5954H15.1565ZM20.5315 26.9287C18.5607 26.9287 16.9482 25.3162 16.9482 23.3454C16.9482 21.3745 18.5607 19.762 20.5315 19.762C22.5023 19.762 24.1148 21.3745 24.1148 23.3454C24.1148 25.3162 22.5023 26.9287 20.5315 26.9287Z" fill="#F1F1F1"/>
</svg>
