<svg width="39" height="39" viewBox="0 0 39 39" fill="none" xmlns="http://www.w3.org/2000/svg">
<path d="M14.0417 32.0833C15.1463 32.0833 16.0417 31.1879 16.0417 30.0833V24.4583C16.0417 23.3538 16.9371 22.4583 18.0417 22.4583H20.4584C21.5629 22.4583 22.4584 23.3538 22.4584 24.4583V30.0833C22.4584 31.1879 23.3538 32.0833 24.4584 32.0833H28.4792C29.5838 32.0833 30.4792 31.1879 30.4792 30.0833V20.5846C30.4792 19.8475 31.0767 19.25 31.8138 19.25V19.25C33.0369 19.25 33.6158 17.7416 32.7066 16.9234L20.588 6.01664C19.8274 5.33209 18.6727 5.33209 17.9121 6.01664L5.79348 16.9234C4.88433 17.7416 5.46314 19.25 6.68628 19.25V19.25C7.42335 19.25 8.02087 19.8475 8.02087 20.5846V30.0833C8.02087 31.1879 8.9163 32.0833 10.0209 32.0833H14.0417Z" fill="#1F1F1F"/>
</svg>
