<svg width="50" height="51" viewBox="0 0 50 51" fill="none" xmlns="http://www.w3.org/2000/svg">
<path d="M44.1255 28.0285C44.2219 27.2473 44.2862 26.4348 44.2862 25.591C44.2862 24.7473 44.2219 23.9348 44.0933 23.1535L49.5256 19.0285C50.0077 18.6535 50.1363 17.966 49.847 17.4348L44.704 8.7785C44.3826 8.216 43.7076 8.0285 43.129 8.216L36.7324 10.716C35.3824 9.716 33.9681 8.9035 32.393 8.2785L31.4287 1.6535C31.3323 1.0285 30.7859 0.591003 30.143 0.591003H19.857C19.2141 0.591003 18.6999 1.0285 18.6034 1.6535L17.6391 8.2785C16.0641 8.9035 14.6176 9.74725 13.2997 10.716L6.90315 8.216C6.32456 7.99725 5.64955 8.216 5.32811 8.7785L0.185132 17.4348C-0.136304 17.9973 -0.00772897 18.6535 0.506569 19.0285L5.93884 23.1535C5.81027 23.9348 5.71383 24.7785 5.71383 25.591C5.71383 26.4035 5.77812 27.2473 5.9067 28.0285L0.474424 32.1535C-0.00772973 32.5285 -0.136304 33.216 0.152989 33.7473L5.29597 42.4035C5.6174 42.966 6.29242 43.1535 6.871 42.966L13.2676 40.466C14.6176 41.466 16.0319 42.2785 17.607 42.9035L18.5713 49.5285C18.6999 50.1535 19.2141 50.591 19.857 50.591H30.143C30.7859 50.591 31.3323 50.1535 31.3966 49.5285L32.3609 42.9035C33.9359 42.2785 35.3824 41.4348 36.7003 40.466L43.0969 42.966C43.6754 43.1848 44.3505 42.966 44.6719 42.4035L49.8149 33.7473C50.1363 33.1848 50.0077 32.5285 49.4934 32.1535L44.1255 28.0285ZM25 34.966C19.6963 34.966 15.3569 30.7473 15.3569 25.591C15.3569 20.4348 19.6963 16.216 25 16.216C30.3037 16.216 34.6431 20.4348 34.6431 25.591C34.6431 30.7473 30.3037 34.966 25 34.966Z" fill="#F1F1F1"/>
</svg>
