<svg width="50" height="50" viewBox="0 0 50 50" fill="none" xmlns="http://www.w3.org/2000/svg">
<path d="M22.9167 0V6.25H27.0833V0H22.9167ZM8.7972 5.85124L5.85124 8.7972L10.2702 13.2161L13.2161 10.2702L8.7972 5.85124ZM41.2028 5.85124L36.7839 10.2702L39.7298 13.2161L44.1488 8.7972L41.2028 5.85124ZM25 10.4167C16.9705 10.4167 10.4167 16.9705 10.4167 25C10.4167 33.0295 16.9705 39.5833 25 39.5833C33.0295 39.5833 39.5833 33.0295 39.5833 25C39.5833 16.9705 33.0295 10.4167 25 10.4167ZM25 14.5833C30.7776 14.5833 35.4167 19.2224 35.4167 25C35.4167 30.7776 30.7776 35.4167 25 35.4167C19.2224 35.4167 14.5833 30.7776 14.5833 25C14.5833 19.2224 19.2224 14.5833 25 14.5833ZM0 22.9167V27.0833H6.25V22.9167H0ZM43.75 22.9167V27.0833H50V22.9167H43.75ZM10.2702 36.7839L5.85124 41.2028L8.7972 44.1488L13.2161 39.7298L10.2702 36.7839ZM39.7298 36.7839L36.7839 39.7298L41.2028 44.1488L44.1488 41.2028L39.7298 36.7839ZM22.9167 43.75V50H27.0833V43.75H22.9167Z" fill="#F1F1F1"/>
</svg>
